<mxfile host="app.diagrams.net" modified="2024-05-18T12:25:45.670Z" agent="Mozilla/5.0 (Windows NT 10.0; Win64; x64) AppleWebKit/537.36 (KHTML, like Gecko) Chrome/125.0.0.0 Safari/537.36" etag="aHNq-H0tJrFM1N6jWbK4" version="24.4.4" type="github">
  <diagram name="Seite-1" id="sYn7OmClSIo9AgA5oGfF">
    <mxGraphModel dx="1221" dy="618" grid="1" gridSize="10" guides="1" tooltips="1" connect="1" arrows="1" fold="1" page="1" pageScale="1" pageWidth="840" pageHeight="1000" math="0" shadow="0">
      <root>
        <mxCell id="0" />
        <mxCell id="1" parent="0" />
        <mxCell id="gqAwBxLENHyAQ9l-G7uC-22" style="edgeStyle=orthogonalEdgeStyle;rounded=0;orthogonalLoop=1;jettySize=auto;html=1;entryX=0.5;entryY=0;entryDx=0;entryDy=0;endArrow=open;endFill=0;" edge="1" parent="1" source="gqAwBxLENHyAQ9l-G7uC-1" target="gqAwBxLENHyAQ9l-G7uC-21">
          <mxGeometry relative="1" as="geometry" />
        </mxCell>
        <mxCell id="gqAwBxLENHyAQ9l-G7uC-1" value="Bezeichnung eingeben" style="rounded=1;whiteSpace=wrap;html=1;" vertex="1" parent="1">
          <mxGeometry x="185" y="260" width="120" height="50" as="geometry" />
        </mxCell>
        <mxCell id="gqAwBxLENHyAQ9l-G7uC-20" style="edgeStyle=orthogonalEdgeStyle;rounded=0;orthogonalLoop=1;jettySize=auto;html=1;entryX=0.5;entryY=0;entryDx=0;entryDy=0;endArrow=open;endFill=0;" edge="1" parent="1" source="gqAwBxLENHyAQ9l-G7uC-3" target="gqAwBxLENHyAQ9l-G7uC-1">
          <mxGeometry relative="1" as="geometry" />
        </mxCell>
        <mxCell id="gqAwBxLENHyAQ9l-G7uC-3" value="" style="ellipse;fillColor=strokeColor;html=1;" vertex="1" parent="1">
          <mxGeometry x="230" y="200" width="30" height="30" as="geometry" />
        </mxCell>
        <mxCell id="gqAwBxLENHyAQ9l-G7uC-4" value="" style="ellipse;html=1;shape=endState;fillColor=strokeColor;" vertex="1" parent="1">
          <mxGeometry x="230" y="420" width="30" height="30" as="geometry" />
        </mxCell>
        <mxCell id="gqAwBxLENHyAQ9l-G7uC-8" value="" style="endArrow=none;html=1;rounded=0;entryX=0.442;entryY=0.503;entryDx=0;entryDy=0;entryPerimeter=0;exitX=1;exitY=0.5;exitDx=0;exitDy=0;exitPerimeter=0;" edge="1" parent="1">
          <mxGeometry width="50" height="50" relative="1" as="geometry">
            <mxPoint x="104.50000000000023" y="59.99999999999977" as="sourcePoint" />
            <mxPoint x="104.4670000000001" y="54.977999999999724" as="targetPoint" />
          </mxGeometry>
        </mxCell>
        <mxCell id="gqAwBxLENHyAQ9l-G7uC-18" value="Tag erstellen" style="shape=umlFrame;whiteSpace=wrap;html=1;pointerEvents=0;width=81;height=25;align=left;" vertex="1" parent="1">
          <mxGeometry x="150" y="160" width="190" height="320" as="geometry" />
        </mxCell>
        <mxCell id="gqAwBxLENHyAQ9l-G7uC-23" style="edgeStyle=orthogonalEdgeStyle;rounded=0;orthogonalLoop=1;jettySize=auto;html=1;entryX=0.5;entryY=0;entryDx=0;entryDy=0;endArrow=open;endFill=0;" edge="1" parent="1" source="gqAwBxLENHyAQ9l-G7uC-21" target="gqAwBxLENHyAQ9l-G7uC-4">
          <mxGeometry relative="1" as="geometry" />
        </mxCell>
        <mxCell id="gqAwBxLENHyAQ9l-G7uC-21" value="Emoji auswÃ¤hlen" style="rounded=1;whiteSpace=wrap;html=1;" vertex="1" parent="1">
          <mxGeometry x="185" y="340" width="120" height="50" as="geometry" />
        </mxCell>
      </root>
    </mxGraphModel>
  </diagram>
</mxfile>
